{
  "accessors": [
    {
      "bufferView": 2,
      "componentType": 5126,
      "count": 65532,
      "max": [
        4.8553199768066406,
        -3.384505033493042,
        2.0247230529785156
      ],
      "min": [
        1.2819499969482422,
        -6.7822299003601074,
        -4.0460672378540039
      ],
      "type": "VEC3"
    },
    {
      "bufferView": 2,
      "byteOffset": 786384,
      "componentType": 5126,
      "count": 65532,
      "max": [
        0.99992066621780396,
        0.99996387958526611,
        0.99998956918716431
      ],
      "min": [
        -0.99995797872543335,
        -0.99999386072158813,
        -0.99996799230575562
      ],
      "type": "VEC3"
    },
    {
      "bufferView": 3,
      "componentType": 5126,
      "count": 65532,
      "max": [
        0.99979060888290405,
        0.99993675947189331,
        0.99999320507049561,
        1
      ],
      "min": [
        -0.99999827146530151,
        -0.99732416868209839,
        -0.99795472621917725,
        -1
      ],
      "type": "VEC4"
    },
    {
      "bufferView": 1,
      "componentType": 5126,
      "count": 65532,
      "max": [
        0.98530000448226929,
        0.99945902824401855
      ],
      "min": [
        0.0036820000968873501,
        0.0033539999276399612
      ],
      "type": "VEC2"
    },
    {
      "bufferView": 0,
      "componentType": 5125,
      "count": 360552,
      "max": [
        65531
      ],
      "min": [
        0
      ],
      "type": "SCALAR"
    },
    {
      "bufferView": 2,
      "byteOffset": 1572768,
      "componentType": 5126,
      "count": 24074,
      "max": [
        4.831477165222168,
        -4.7692742347717285,
        2.0212149620056152
      ],
      "min": [
        1.1829429864883423,
        -6.7895441055297852,
        -4.0269160270690918
      ],
      "type": "VEC3"
    },
    {
      "bufferView": 2,
      "byteOffset": 1861656,
      "componentType": 5126,
      "count": 24074,
      "max": [
        0.99495553970336914,
        0.99369925260543823,
        0.99998956918716431
      ],
      "min": [
        -0.99995332956314087,
        -0.99999511241912842,
        -0.99990600347518921
      ],
      "type": "VEC3"
    },
    {
      "bufferView": 3,
      "byteOffset": 1048512,
      "componentType": 5126,
      "count": 24074,
      "max": [
        0.99204736948013306,
        0.99984610080718994,
        0.99999511241912842,
        1
      ],
      "min": [
        -0.99895906448364258,
        -0.99503761529922485,
        -0.99955457448959351,
        -1
      ],
      "type": "VEC4"
    },
    {
      "bufferView": 1,
      "byteOffset": 524256,
      "componentType": 5126,
      "count": 24074,
      "max": [
        0.98816800117492676,
        0.9987109899520874
      ],
      "min": [
        0.010909999720752239,
        0.015348000451922417
      ],
      "type": "VEC2"
    },
    {
      "bufferView": 0,
      "byteOffset": 1442208,
      "componentType": 5125,
      "count": 113628,
      "max": [
        24073
      ],
      "min": [
        0
      ],
      "type": "SCALAR"
    }
  ],
  "asset": {
    "extras": {
      "author": "The British Museum (https://sketchfab.com/britishmuseum)",
      "license": "CC-BY-NC-SA-4.0 (http://creativecommons.org/licenses/by-nc-sa/4.0/)",
      "source": "https://sketchfab.com/models/09133cc841584a1caab49875c98a1db8",
      "title": "Bust of Augustus"
    },
    "generator": "Sketchfab-3.18.7",
    "version": "2.0"
  },
  "bufferViews": [
    {
      "buffer": 0,
      "byteLength": 1896720,
      "byteOffset": 0,
      "name": "floatBufferViews",
      "target": 34963
    },
    {
      "buffer": 0,
      "byteLength": 716848,
      "byteOffset": 1896720,
      "byteStride": 8,
      "name": "floatBufferViews",
      "target": 34962
    },
    {
      "buffer": 0,
      "byteLength": 2150544,
      "byteOffset": 2613568,
      "byteStride": 12,
      "name": "floatBufferViews",
      "target": 34962
    },
    {
      "buffer": 0,
      "byteLength": 1433696,
      "byteOffset": 4764112,
      "byteStride": 16,
      "name": "floatBufferViews",
      "target": 34962
    }
  ],
  "buffers": [
    {
      "byteLength": 6197808,
      "uri": "scene.bin"
    }
  ],
  "images": [
    {
      "uri": "textures/material_0_baseColor.jpeg"
    }
  ],
  "materials": [
    {
      "doubleSided": true,
      "emissiveFactor": [
        0,
        0,
        0
      ],
      "name": "material_0",
      "pbrMetallicRoughness": {
        "baseColorFactor": [
          1,
          1,
          1,
          1
        ],
        "baseColorTexture": {
          "index": 0,
          "texCoord": 0
        },
        "metallicFactor": 0,
        "roughnessFactor": 0.59999999999999998
      }
    }
  ],
  "meshes": [
    {
      "primitives": [
        {
          "attributes": {
            "NORMAL": 1,
            "POSITION": 0,
            "TANGENT": 2,
            "TEXCOORD_0": 3
          },
          "indices": 4,
          "material": 0,
          "mode": 4
        }
      ]
    },
    {
      "primitives": [
        {
          "attributes": {
            "NORMAL": 6,
            "POSITION": 5,
            "TANGENT": 7,
            "TEXCOORD_0": 8
          },
          "indices": 9,
          "material": 0,
          "mode": 4
        }
      ]
    }
  ],
  "nodes": [
    {
      "children": [
        1
      ],
      "name": "RootNode (gltf orientation matrix)",
      "rotation": [
        -0.70710678118654746,
        -0,
        -0,
        0.70710678118654757
      ]
    },
    {
      "children": [
        2
      ],
      "matrix": [
        0.97930306196212769,
        -0.14714276790618896,
        -0.13897661864757538,
        0,
        0.1511000394821167,
        0.98834890127182007,
        0.01830771192908287,
        0,
        0.13466353714466095,
        -0.038928169757127762,
        0.99012643098831177,
        0,
        1.0023791790008545,
        0.35027855634689331,
        0.51375031471252441,
        1
      ],
      "name": "RootNode (model correction matrix)"
    },
    {
      "children": [
        3,
        4
      ],
      "name": "augustus.obj.cleaner.gles"
    },
    {
      "mesh": 0,
      "name": ""
    },
    {
      "mesh": 1,
      "name": ""
    }
  ],
  "samplers": [
    {
      "magFilter": 9729,
      "minFilter": 9987,
      "wrapS": 10497,
      "wrapT": 10497
    }
  ],
  "scene": 0,
  "scenes": [
    {
      "name": "OSG_Scene",
      "nodes": [
        0
      ]
    }
  ],
  "textures": [
    {
      "sampler": 0,
      "source": 0
    }
  ]
}

