{
  "accessors": [
    {
      "bufferView": 2,
      "componentType": 5126,
      "count": 65532,
      "max": [
        -6.2561511993408203,
        3.2237529754638672,
        0.79120302200317383
      ],
      "min": [
        -13.651579856872559,
        -1.6172820329666138,
        -8.1246929168701172
      ],
      "type": "VEC3"
    },
    {
      "bufferView": 2,
      "byteOffset": 786384,
      "componentType": 5126,
      "count": 65532,
      "max": [
        0.78076642751693726,
        0.99999940395355225,
        0.99998891353607178
      ],
      "min": [
        -0.99998021125793457,
        -0.90464496612548828,
        -0.98984235525131226
      ],
      "type": "VEC3"
    },
    {
      "bufferView": 3,
      "componentType": 5126,
      "count": 65532,
      "max": [
        0.99999487400054932,
        0.99999070167541504,
        0.99995940923690796,
        1
      ],
      "min": [
        -0.99977785348892212,
        -0.86824691295623779,
        -0.91938114166259766,
        1
      ],
      "type": "VEC4"
    },
    {
      "bufferView": 3,
      "byteOffset": 1048512,
      "componentType": 5126,
      "count": 65532,
      "max": [
        1,
        1,
        1,
        1
      ],
      "min": [
        1,
        1,
        1,
        1
      ],
      "type": "VEC4"
    },
    {
      "bufferView": 1,
      "componentType": 5126,
      "count": 65532,
      "max": [
        0.98836100101470947,
        0.98926997184753418
      ],
      "min": [
        0.34994798898696899,
        0.2157679945230484
      ],
      "type": "VEC2"
    },
    {
      "bufferView": 0,
      "componentType": 5125,
      "count": 360237,
      "max": [
        65531
      ],
      "min": [
        0
      ],
      "type": "SCALAR"
    },
    {
      "bufferView": 2,
      "byteOffset": 1572768,
      "componentType": 5126,
      "count": 65532,
      "max": [
        -5.4337558746337891,
        3.0784499645233154,
        0.70402300357818604
      ],
      "min": [
        -13.850056648254395,
        -1.9239929914474487,
        -12.606431007385254
      ],
      "type": "VEC3"
    },
    {
      "bufferView": 2,
      "byteOffset": 2359152,
      "componentType": 5126,
      "count": 65532,
      "max": [
        0.99996662139892578,
        0.99999940395355225,
        0.99999761581420898
      ],
      "min": [
        -0.99999088048934937,
        -0.99993187189102173,
        -0.99904978275299072
      ],
      "type": "VEC3"
    },
    {
      "bufferView": 3,
      "byteOffset": 2097024,
      "componentType": 5126,
      "count": 65532,
      "max": [
        0.99957120418548584,
        0.99922382831573486,
        0.99999880790710449,
        1
      ],
      "min": [
        -0.99998509883880615,
        -0.99997633695602417,
        -0.99999922513961792,
        -1
      ],
      "type": "VEC4"
    },
    {
      "bufferView": 3,
      "byteOffset": 3145536,
      "componentType": 5126,
      "count": 65532,
      "max": [
        1,
        1,
        1,
        1
      ],
      "min": [
        1,
        1,
        1,
        1
      ],
      "type": "VEC4"
    },
    {
      "bufferView": 1,
      "byteOffset": 524256,
      "componentType": 5126,
      "count": 65532,
      "max": [
        0.94663000106811523,
        0.99428099393844604
      ],
      "min": [
        0.0047949999570846558,
        0.0046689999289810658
      ],
      "type": "VEC2"
    },
    {
      "bufferView": 0,
      "byteOffset": 1440948,
      "componentType": 5125,
      "count": 330675,
      "max": [
        65531
      ],
      "min": [
        0
      ],
      "type": "SCALAR"
    },
    {
      "bufferView": 2,
      "byteOffset": 3145536,
      "componentType": 5126,
      "count": 65532,
      "max": [
        -6.0661501884460449,
        2.7940919399261475,
        0.79695600271224976
      ],
      "min": [
        -13.83240795135498,
        -2.2275710105895996,
        -12.581986427307129
      ],
      "type": "VEC3"
    },
    {
      "bufferView": 2,
      "byteOffset": 3931920,
      "componentType": 5126,
      "count": 65532,
      "max": [
        0.99999964237213135,
        0.99999022483825684,
        0.99999284744262695
      ],
      "min": [
        -0.99997282028198242,
        -0.9999203085899353,
        -0.99943965673446655
      ],
      "type": "VEC3"
    },
    {
      "bufferView": 3,
      "byteOffset": 4194048,
      "componentType": 5126,
      "count": 65532,
      "max": [
        0.99977076053619385,
        0.99973827600479126,
        0.99999880790710449,
        1
      ],
      "min": [
        -0.99497336149215698,
        -0.99999982118606567,
        -0.99998855590820312,
        -1
      ],
      "type": "VEC4"
    },
    {
      "bufferView": 3,
      "byteOffset": 5242560,
      "componentType": 5126,
      "count": 65532,
      "max": [
        1,
        1,
        1,
        1
      ],
      "min": [
        1,
        1,
        1,
        1
      ],
      "type": "VEC4"
    },
    {
      "bufferView": 1,
      "byteOffset": 1048512,
      "componentType": 5126,
      "count": 65532,
      "max": [
        0.91642898321151733,
        0.98805397748947144
      ],
      "min": [
        0.025875000283122063,
        0.003886000020429492
      ],
      "type": "VEC2"
    },
    {
      "bufferView": 0,
      "byteOffset": 2763648,
      "componentType": 5125,
      "count": 331584,
      "max": [
        65531
      ],
      "min": [
        0
      ],
      "type": "SCALAR"
    },
    {
      "bufferView": 2,
      "byteOffset": 4718304,
      "componentType": 5126,
      "count": 65532,
      "max": [
        -5.4339509010314941,
        2.6554129123687744,
        0.80139797925949097
      ],
      "min": [
        -13.849185943603516,
        -2.5596640110015869,
        -12.584664344787598
      ],
      "type": "VEC3"
    },
    {
      "bufferView": 2,
      "byteOffset": 5504688,
      "componentType": 5126,
      "count": 65532,
      "max": [
        0.99998331069946289,
        0.99998068809509277,
        0.99999284744262695
      ],
      "min": [
        -0.99999409914016724,
        -0.99997586011886597,
        -0.99943965673446655
      ],
      "type": "VEC3"
    },
    {
      "bufferView": 3,
      "byteOffset": 6291072,
      "componentType": 5126,
      "count": 65532,
      "max": [
        0.99999368190765381,
        0.9998134970664978,
        0.99974822998046875,
        1
      ],
      "min": [
        -0.98897933959960938,
        -0.99999940395355225,
        -0.99975377321243286,
        -1
      ],
      "type": "VEC4"
    },
    {
      "bufferView": 3,
      "byteOffset": 7339584,
      "componentType": 5126,
      "count": 65532,
      "max": [
        1,
        1,
        1,
        1
      ],
      "min": [
        1,
        1,
        1,
        1
      ],
      "type": "VEC4"
    },
    {
      "bufferView": 1,
      "byteOffset": 1572768,
      "componentType": 5126,
      "count": 65532,
      "max": [
        0.90160900354385376,
        0.99030297994613647
      ],
      "min": [
        0.010871999897062778,
        0.0040719998069107533
      ],
      "type": "VEC2"
    },
    {
      "bufferView": 0,
      "byteOffset": 4089984,
      "componentType": 5125,
      "count": 302970,
      "max": [
        65531
      ],
      "min": [
        0
      ],
      "type": "SCALAR"
    },
    {
      "bufferView": 2,
      "byteOffset": 6291072,
      "componentType": 5126,
      "count": 65532,
      "max": [
        -5.4339509010314941,
        1.2418429851531982,
        0.75825101137161255
      ],
      "min": [
        -13.666646957397461,
        -4.0746521949768066,
        -12.50222110748291
      ],
      "type": "VEC3"
    },
    {
      "bufferView": 2,
      "byteOffset": 7077456,
      "componentType": 5126,
      "count": 65532,
      "max": [
        0.99999964237213135,
        0.97120881080627441,
        0.99998831748962402
      ],
      "min": [
        -0.99983769655227661,
        -0.99999308586120605,
        -0.99835205078125
      ],
      "type": "VEC3"
    },
    {
      "bufferView": 3,
      "byteOffset": 8388096,
      "componentType": 5126,
      "count": 65532,
      "max": [
        0.99999487400054932,
        0.99979525804519653,
        0.99150353670120239,
        1
      ],
      "min": [
        -0.9519660472869873,
        -0.99999099969863892,
        -0.99945986270904541,
        -1
      ],
      "type": "VEC4"
    },
    {
      "bufferView": 3,
      "byteOffset": 9436608,
      "componentType": 5126,
      "count": 65532,
      "max": [
        1,
        1,
        1,
        1
      ],
      "min": [
        1,
        1,
        1,
        1
      ],
      "type": "VEC4"
    },
    {
      "bufferView": 1,
      "byteOffset": 2097024,
      "componentType": 5126,
      "count": 65532,
      "max": [
        0.9195370078086853,
        0.94136697053909302
      ],
      "min": [
        0.0089830001816153526,
        0.048840001225471497
      ],
      "type": "VEC2"
    },
    {
      "bufferView": 0,
      "byteOffset": 5301864,
      "componentType": 5125,
      "count": 321456,
      "max": [
        65531
      ],
      "min": [
        0
      ],
      "type": "SCALAR"
    },
    {
      "bufferView": 2,
      "byteOffset": 7863840,
      "componentType": 5126,
      "count": 65532,
      "max": [
        -5.5293779373168945,
        0.06830199807882309,
        0.70480400323867798
      ],
      "min": [
        -12.872067451477051,
        -4.1909580230712891,
        -12.464803695678711
      ],
      "type": "VEC3"
    },
    {
      "bufferView": 2,
      "byteOffset": 8650224,
      "componentType": 5126,
      "count": 65532,
      "max": [
        0.99999082088470459,
        0.96722221374511719,
        0.99999111890792847
      ],
      "min": [
        -0.99993425607681274,
        -0.99998080730438232,
        -0.99914008378982544
      ],
      "type": "VEC3"
    },
    {
      "bufferView": 3,
      "byteOffset": 10485120,
      "componentType": 5126,
      "count": 65532,
      "max": [
        0.99028891324996948,
        0.99989044666290283,
        0.97237038612365723,
        1
      ],
      "min": [
        -0.97894287109375,
        -0.99996054172515869,
        -0.99998855590820312,
        -1
      ],
      "type": "VEC4"
    },
    {
      "bufferView": 3,
      "byteOffset": 11533632,
      "componentType": 5126,
      "count": 65532,
      "max": [
        1,
        1,
        1,
        1
      ],
      "min": [
        1,
        1,
        1,
        1
      ],
      "type": "VEC4"
    },
    {
      "bufferView": 1,
      "byteOffset": 2621280,
      "componentType": 5126,
      "count": 65532,
      "max": [
        0.91571402549743652,
        0.91668099164962769
      ],
      "min": [
        0.024660000577569008,
        0.093359000980854034
      ],
      "type": "VEC2"
    },
    {
      "bufferView": 0,
      "byteOffset": 6587688,
      "componentType": 5125,
      "count": 318384,
      "max": [
        65531
      ],
      "min": [
        0
      ],
      "type": "SCALAR"
    },
    {
      "bufferView": 2,
      "byteOffset": 9436608,
      "componentType": 5126,
      "count": 35043,
      "max": [
        -6.6159720420837402,
        2.4516720771789551,
        0.11424800008535385
      ],
      "min": [
        -11.670470237731934,
        -4.5316829681396484,
        -12.606431007385254
      ],
      "type": "VEC3"
    },
    {
      "bufferView": 2,
      "byteOffset": 9857124,
      "componentType": 5126,
      "count": 35043,
      "max": [
        0.9963042140007019,
        0.97903686761856079,
        0.99481487274169922
      ],
      "min": [
        -0.99965900182723999,
        -0.99999308586120605,
        -0.99904978275299072
      ],
      "type": "VEC3"
    },
    {
      "bufferView": 3,
      "byteOffset": 12582144,
      "componentType": 5126,
      "count": 35043,
      "max": [
        0.97174978256225586,
        0.99470353126525879,
        0.34496098756790161,
        1
      ],
      "min": [
        -0.53441876173019409,
        -0.99642199277877808,
        -0.98025792837142944,
        -1
      ],
      "type": "VEC4"
    },
    {
      "bufferView": 3,
      "byteOffset": 13142832,
      "componentType": 5126,
      "count": 35043,
      "max": [
        1,
        1,
        1,
        1
      ],
      "min": [
        1,
        1,
        1,
        1
      ],
      "type": "VEC4"
    },
    {
      "bufferView": 1,
      "byteOffset": 3145536,
      "componentType": 5126,
      "count": 35043,
      "max": [
        0.64964497089385986,
        0.93428200483322144
      ],
      "min": [
        0.038295000791549683,
        0.047322001308202744
      ],
      "type": "VEC2"
    },
    {
      "bufferView": 0,
      "byteOffset": 7861224,
      "componentType": 5125,
      "count": 177204,
      "max": [
        35042
      ],
      "min": [
        0
      ],
      "type": "SCALAR"
    }
  ],
  "asset": {
    "extras": {
      "author": "The British Museum (https://sketchfab.com/britishmuseum)",
      "license": "CC-BY-NC-SA-4.0 (http://creativecommons.org/licenses/by-nc-sa/4.0/)",
      "source": "https://sketchfab.com/models/f2c85efed07b47fa85d7881d0bba6e91",
      "title": "A marble head of a Ptolemaic ruler"
    },
    "generator": "Sketchfab-3.19.2",
    "version": "2.0"
  },
  "bufferViews": [
    {
      "buffer": 0,
      "byteLength": 8570040,
      "byteOffset": 0,
      "name": "floatBufferViews",
      "target": 34963
    },
    {
      "buffer": 0,
      "byteLength": 3425880,
      "byteOffset": 8570040,
      "byteStride": 8,
      "name": "floatBufferViews",
      "target": 34962
    },
    {
      "buffer": 0,
      "byteLength": 10277640,
      "byteOffset": 11995920,
      "byteStride": 12,
      "name": "floatBufferViews",
      "target": 34962
    },
    {
      "buffer": 0,
      "byteLength": 13703520,
      "byteOffset": 22273560,
      "byteStride": 16,
      "name": "floatBufferViews",
      "target": 34962
    }
  ],
  "buffers": [
    {
      "byteLength": 35977080,
      "uri": "scene.bin"
    }
  ],
  "images": [
    {
      "uri": "textures/material_0_baseColor.jpeg"
    },
    {
      "uri": "textures/material_0_metallicRoughness.png"
    }
  ],
  "materials": [
    {
      "doubleSided": true,
      "emissiveFactor": [
        0,
        0,
        0
      ],
      "name": "material_0",
      "pbrMetallicRoughness": {
        "baseColorFactor": [
          1,
          1,
          1,
          1
        ],
        "baseColorTexture": {
          "index": 0,
          "texCoord": 0
        },
        "metallicFactor": 0.17000000000000001,
        "metallicRoughnessTexture": {
          "index": 1,
          "texCoord": 0
        },
        "roughnessFactor": 1
      }
    }
  ],
  "meshes": [
    {
      "primitives": [
        {
          "attributes": {
            "COLOR_0": 3,
            "NORMAL": 1,
            "POSITION": 0,
            "TANGENT": 2,
            "TEXCOORD_0": 4
          },
          "indices": 5,
          "material": 0,
          "mode": 4
        }
      ]
    },
    {
      "primitives": [
        {
          "attributes": {
            "COLOR_0": 9,
            "NORMAL": 7,
            "POSITION": 6,
            "TANGENT": 8,
            "TEXCOORD_0": 10
          },
          "indices": 11,
          "material": 0,
          "mode": 4
        }
      ]
    },
    {
      "primitives": [
        {
          "attributes": {
            "COLOR_0": 15,
            "NORMAL": 13,
            "POSITION": 12,
            "TANGENT": 14,
            "TEXCOORD_0": 16
          },
          "indices": 17,
          "material": 0,
          "mode": 4
        }
      ]
    },
    {
      "primitives": [
        {
          "attributes": {
            "COLOR_0": 21,
            "NORMAL": 19,
            "POSITION": 18,
            "TANGENT": 20,
            "TEXCOORD_0": 22
          },
          "indices": 23,
          "material": 0,
          "mode": 4
        }
      ]
    },
    {
      "primitives": [
        {
          "attributes": {
            "COLOR_0": 27,
            "NORMAL": 25,
            "POSITION": 24,
            "TANGENT": 26,
            "TEXCOORD_0": 28
          },
          "indices": 29,
          "material": 0,
          "mode": 4
        }
      ]
    },
    {
      "primitives": [
        {
          "attributes": {
            "COLOR_0": 33,
            "NORMAL": 31,
            "POSITION": 30,
            "TANGENT": 32,
            "TEXCOORD_0": 34
          },
          "indices": 35,
          "material": 0,
          "mode": 4
        }
      ]
    },
    {
      "primitives": [
        {
          "attributes": {
            "COLOR_0": 39,
            "NORMAL": 37,
            "POSITION": 36,
            "TANGENT": 38,
            "TEXCOORD_0": 40
          },
          "indices": 41,
          "material": 0,
          "mode": 4
        }
      ]
    }
  ],
  "nodes": [
    {
      "children": [
        1
      ],
      "name": "RootNode (gltf orientation matrix)",
      "rotation": [
        -0.70710678118654746,
        -0,
        -0,
        0.70710678118654757
      ]
    },
    {
      "children": [
        2
      ],
      "name": "RootNode (model correction matrix)"
    },
    {
      "children": [
        3,
        4,
        5,
        6,
        7,
        8,
        9
      ],
      "name": "greekHead.obj.cleaner.gles"
    },
    {
      "mesh": 0,
      "name": ""
    },
    {
      "mesh": 1,
      "name": ""
    },
    {
      "mesh": 2,
      "name": ""
    },
    {
      "mesh": 3,
      "name": ""
    },
    {
      "mesh": 4,
      "name": ""
    },
    {
      "mesh": 5,
      "name": ""
    },
    {
      "mesh": 6,
      "name": ""
    }
  ],
  "samplers": [
    {
      "magFilter": 9729,
      "minFilter": 9987,
      "wrapS": 10497,
      "wrapT": 10497
    }
  ],
  "scene": 0,
  "scenes": [
    {
      "name": "OSG_Scene",
      "nodes": [
        0
      ]
    }
  ],
  "textures": [
    {
      "sampler": 0,
      "source": 0
    },
    {
      "sampler": 0,
      "source": 1
    }
  ]
}

