{
  "accessors": [
    {
      "bufferView": 2,
      "componentType": 5126,
      "count": 65532,
      "max": [
        3.1428260803222656,
        5.1618790626525879,
        3.3428139686584473
      ],
      "min": [
        0,
        0,
        0
      ],
      "type": "VEC3"
    },
    {
      "bufferView": 2,
      "byteOffset": 786384,
      "componentType": 5126,
      "count": 65532,
      "max": [
        0.99946868419647217,
        0.99992132186889648,
        0.99999701976776123
      ],
      "min": [
        -0.99997681379318237,
        -0.99999988079071045,
        -0.9999539852142334
      ],
      "type": "VEC3"
    },
    {
      "bufferView": 3,
      "componentType": 5126,
      "count": 65532,
      "max": [
        0.99999916553497314,
        0.99995666742324829,
        0.98096156120300293,
        1
      ],
      "min": [
        -0.99989384412765503,
        -0.93411928415298462,
        -0.99999874830245972,
        -1
      ],
      "type": "VEC4"
    },
    {
      "bufferView": 1,
      "componentType": 5126,
      "count": 65532,
      "max": [
        0.99524402618408203,
        0.98638701438903809
      ],
      "min": [
        0.003123000031337142,
        0.0037730000913143158
      ],
      "type": "VEC2"
    },
    {
      "bufferView": 0,
      "componentType": 5125,
      "count": 359646,
      "max": [
        65531
      ],
      "min": [
        0
      ],
      "type": "SCALAR"
    },
    {
      "bufferView": 2,
      "byteOffset": 1572768,
      "componentType": 5126,
      "count": 65532,
      "max": [
        3.2758219242095947,
        5.1640782356262207,
        3.3367090225219727
      ],
      "min": [
        0.14807391166687012,
        0,
        0.0013539791107177734
      ],
      "type": "VEC3"
    },
    {
      "bufferView": 2,
      "byteOffset": 2359152,
      "componentType": 5126,
      "count": 65532,
      "max": [
        0.99998581409454346,
        0.99992132186889648,
        0.99999034404754639
      ],
      "min": [
        -0.99997681379318237,
        -0.99997997283935547,
        -0.99982631206512451
      ],
      "type": "VEC3"
    },
    {
      "bufferView": 3,
      "byteOffset": 1048512,
      "componentType": 5126,
      "count": 65532,
      "max": [
        0.99999791383743286,
        0.99615579843521118,
        0.99980843067169189,
        1
      ],
      "min": [
        -0.99990302324295044,
        -0.9993472695350647,
        -0.99998319149017334,
        -1
      ],
      "type": "VEC4"
    },
    {
      "bufferView": 1,
      "byteOffset": 524256,
      "componentType": 5126,
      "count": 65532,
      "max": [
        0.99502897262573242,
        0.99993300437927246
      ],
      "min": [
        0.0036049999762326479,
        0.0029150000773370266
      ],
      "type": "VEC2"
    },
    {
      "bufferView": 0,
      "byteOffset": 1438584,
      "componentType": 5125,
      "count": 325428,
      "max": [
        65531
      ],
      "min": [
        0
      ],
      "type": "SCALAR"
    },
    {
      "bufferView": 2,
      "byteOffset": 3145536,
      "componentType": 5126,
      "count": 3266,
      "max": [
        3.190619945526123,
        5.1618790626525879,
        2.9806029796600342
      ],
      "min": [
        2.0997800827026367,
        3.4239230155944824,
        1.5116469860076904
      ],
      "type": "VEC3"
    },
    {
      "bufferView": 2,
      "byteOffset": 3184728,
      "componentType": 5126,
      "count": 3266,
      "max": [
        0.99999046325683594,
        0.98496836423873901,
        0.99954795837402344
      ],
      "min": [
        -0.95488357543945312,
        -0.89099669456481934,
        -0.92466211318969727
      ],
      "type": "VEC3"
    },
    {
      "bufferView": 3,
      "byteOffset": 2097024,
      "componentType": 5126,
      "count": 3266,
      "max": [
        0.94825965166091919,
        0.79321372509002686,
        0.9823644757270813,
        1
      ],
      "min": [
        -0.99989384412765503,
        -0.82802492380142212,
        -0.97468864917755127,
        -1
      ],
      "type": "VEC4"
    },
    {
      "bufferView": 1,
      "byteOffset": 1048512,
      "componentType": 5126,
      "count": 3266,
      "max": [
        0.88038301467895508,
        0.89870297908782959
      ],
      "min": [
        0.15488600730895996,
        0.0035409999545663595
      ],
      "type": "VEC2"
    },
    {
      "bufferView": 0,
      "byteOffset": 2740296,
      "componentType": 5125,
      "count": 11628,
      "max": [
        3265
      ],
      "min": [
        0
      ],
      "type": "SCALAR"
    }
  ],
  "asset": {
    "extras": {
      "author": "The British Museum (https://sketchfab.com/britishmuseum)",
      "license": "CC-BY-NC-SA-4.0 (http://creativecommons.org/licenses/by-nc-sa/4.0/)",
      "source": "https://sketchfab.com/models/08431b71514149c4970529ef35d88511",
      "title": "Socrates"
    },
    "generator": "Sketchfab-3.18.7",
    "version": "2.0"
  },
  "bufferViews": [
    {
      "buffer": 0,
      "byteLength": 2786808,
      "byteOffset": 0,
      "name": "floatBufferViews",
      "target": 34963
    },
    {
      "buffer": 0,
      "byteLength": 1074640,
      "byteOffset": 2786808,
      "byteStride": 8,
      "name": "floatBufferViews",
      "target": 34962
    },
    {
      "buffer": 0,
      "byteLength": 3223920,
      "byteOffset": 3861448,
      "byteStride": 12,
      "name": "floatBufferViews",
      "target": 34962
    },
    {
      "buffer": 0,
      "byteLength": 2149280,
      "byteOffset": 7085368,
      "byteStride": 16,
      "name": "floatBufferViews",
      "target": 34962
    }
  ],
  "buffers": [
    {
      "byteLength": 9234648,
      "uri": "scene.bin"
    }
  ],
  "extensionsUsed": [
    "KHR_materials_unlit"
  ],
  "images": [
    {
      "uri": "textures/material_0_baseColor.jpeg"
    }
  ],
  "materials": [
    {
      "doubleSided": true,
      "emissiveFactor": [
        0,
        0,
        0
      ],
      "extensions": {
        "KHR_materials_unlit": {}
      },
      "name": "material_0",
      "pbrMetallicRoughness": {
        "baseColorFactor": [
          1,
          1,
          1,
          1
        ],
        "baseColorTexture": {
          "index": 0,
          "texCoord": 0
        },
        "metallicFactor": 0,
        "roughnessFactor": 1
      }
    }
  ],
  "meshes": [
    {
      "primitives": [
        {
          "attributes": {
            "NORMAL": 1,
            "POSITION": 0,
            "TANGENT": 2,
            "TEXCOORD_0": 3
          },
          "indices": 4,
          "material": 0,
          "mode": 4
        }
      ]
    },
    {
      "primitives": [
        {
          "attributes": {
            "NORMAL": 6,
            "POSITION": 5,
            "TANGENT": 7,
            "TEXCOORD_0": 8
          },
          "indices": 9,
          "material": 0,
          "mode": 4
        }
      ]
    },
    {
      "primitives": [
        {
          "attributes": {
            "NORMAL": 11,
            "POSITION": 10,
            "TANGENT": 12,
            "TEXCOORD_0": 13
          },
          "indices": 14,
          "material": 0,
          "mode": 4
        }
      ]
    }
  ],
  "nodes": [
    {
      "children": [
        1
      ],
      "name": "RootNode (gltf orientation matrix)",
      "rotation": [
        -0.70710678118654746,
        -0,
        -0,
        0.70710678118654757
      ]
    },
    {
      "children": [
        2
      ],
      "matrix": [
        -0.80834770202636719,
        -0.57873016595840454,
        -0.10791401565074921,
        0,
        0.037224914878606796,
        0.13269329071044922,
        -0.99045789241790771,
        0,
        0.58752727508544922,
        -0.80465143918991089,
        -0.085719138383865356,
        0,
        -6.9089998078197823e-07,
        -1.0206999832007568e-06,
        -9.4400002126349136e-07,
        1
      ],
      "name": "RootNode (model correction matrix)"
    },
    {
      "children": [
        3,
        4,
        5
      ],
      "matrix": [
        1,
        0,
        0,
        0,
        0,
        1,
        0,
        0,
        0,
        0,
        1,
        0,
        -1.6379109621047974,
        -2.5820391178131104,
        -1.6714069843292236,
        1
      ],
      "name": "model.obj.cleaner.gles"
    },
    {
      "mesh": 0,
      "name": ""
    },
    {
      "mesh": 1,
      "name": ""
    },
    {
      "mesh": 2,
      "name": ""
    }
  ],
  "samplers": [
    {
      "magFilter": 9729,
      "minFilter": 9987,
      "wrapS": 10497,
      "wrapT": 10497
    }
  ],
  "scene": 0,
  "scenes": [
    {
      "name": "OSG_Scene",
      "nodes": [
        0
      ]
    }
  ],
  "textures": [
    {
      "sampler": 0,
      "source": 0
    }
  ]
}

